<?xml version="1.0" encoding="UTF-8" standalone="no"?>
<!-- Created with Inkscape (http://www.inkscape.org/) -->

<svg
   width="178.30757mm"
   height="190.88065mm"
   viewBox="0 0 178.30757 190.88065"
   version="1.1"
   id="svg1"
   xml:space="preserve"
   inkscape:version="1.4.3 (0d15f75, 2025-12-25)"
   sodipodi:docname="ghost_chess_logo_1.svg"
   xmlns:inkscape="http://www.inkscape.org/namespaces/inkscape"
   xmlns:sodipodi="http://sodipodi.sourceforge.net/DTD/sodipodi-0.dtd"
   xmlns="http://www.w3.org/2000/svg"
   xmlns:svg="http://www.w3.org/2000/svg"><sodipodi:namedview
     id="namedview1"
     pagecolor="#ffffff"
     bordercolor="#000000"
     borderopacity="0.25"
     inkscape:showpageshadow="2"
     inkscape:pageopacity="0.0"
     inkscape:pagecheckerboard="0"
     inkscape:deskcolor="#d1d1d1"
     inkscape:document-units="mm"
     inkscape:zoom="1"
     inkscape:cx="200.5"
     inkscape:cy="357"
     inkscape:window-width="1708"
     inkscape:window-height="1101"
     inkscape:window-x="1771"
     inkscape:window-y="123"
     inkscape:window-maximized="0"
     inkscape:current-layer="layer1" /><defs
     id="defs1" /><g
     inkscape:label="Layer 1"
     inkscape:groupmode="layer"
     id="layer1"
     transform="translate(-15.841907,-0.76730325)"><path
       id="path1"
       style="fill:#000000;stroke-width:0.75"
       d="M 106.26367,0.24414062 C 98.43266,0.38154965 90.710021,3.3092944 84.723446,8.3530532 77.781741,14.122138 73.034583,22.097306 69.72418,30.400331 c -1.367099,3.294691 -2.324403,6.735014 -3.444148,10.115035 -0.448174,1.66781 -2.095233,2.47831 -3.330813,3.4944 -2.20005,-1.021746 -4.538972,-1.675387 -6.796868,-2.544518 -3.936448,-1.599872 -7.462867,-4.151273 -10.250576,-7.354943 -2.355231,-2.487579 -5.481004,-4.409136 -8.961016,-4.658804 -4.817712,-0.511473 -9.555448,1.577715 -13.198468,4.611458 -4.138493,3.495137 -6.943062,8.443362 -8.195136,13.683971 -0.31454,1.925748 -0.29556,3.904173 -0.119421,5.842914 0.35443,2.038241 1.599013,4.264476 3.794922,4.683594 2.046557,0.421418 4.131367,-0.420928 5.650025,-1.777953 0.404967,-0.320569 0.788709,-0.667079 1.201538,-0.977907 0.390573,1.780855 1.569674,3.528918 3.420778,3.992593 1.996269,0.639415 3.88012,-0.593091 5.678186,-1.280701 0.578823,-0.309812 1.044107,0.426491 1.480902,0.71769 3.208586,2.987985 5.648496,6.663393 8.204185,10.193787 1.034551,1.241202 2.005373,2.535487 2.735962,3.98419 1.000352,1.789905 2.284837,3.406021 3.315924,5.171738 0.773714,0.549368 1.912351,-0.54489 1.597656,-1.384766 -0.761174,-2.142851 -1.674096,-4.238298 -2.669921,-6.283203 1.343764,0.151864 2.644946,0.527345 3.953125,0.855469 -3.405928,-4.869244 -6.991609,-9.614466 -10.209566,-14.613825 -1.208714,-1.812279 -2.361727,-3.662332 -3.608794,-5.448675 0.05067,-1.588802 0.848871,-3.170871 0.433594,-4.775391 -0.20159,-0.596998 -0.985362,-0.563713 -1.265521,-0.04845 -1.199601,1.543605 -2.154696,3.273611 -3.487733,4.719282 -1.288876,1.401401 -2.560641,3.092871 -4.500652,3.575266 -0.621284,0.219725 -0.898267,-0.418198 -0.876953,-0.933594 -0.16308,-2.380156 0.08952,-4.812018 0.83437,-7.080795 0.249373,-0.613632 -0.356836,-1.354017 -0.982808,-0.948501 -2.064563,1.270548 -3.801627,3.002707 -5.596712,4.617411 -1.263992,1.090632 -2.375627,2.457826 -3.913053,3.167745 -0.827602,0.159342 -0.979559,-0.953753 -1.064097,-1.544367 -0.325385,-4.018857 1.331482,-7.933162 3.554331,-11.197821 1.995513,-2.855537 4.677674,-5.227928 7.984375,-6.478515 2.135899,-0.778591 4.497028,-1.078434 6.73918,-0.665759 1.824587,0.665562 3.671604,1.575976 4.855279,3.177713 4.220175,5.335497 10.757842,7.981394 15.566118,12.671331 2.491126,2.382467 4.576185,5.160539 6.464423,8.029605 0.438583,0.504516 1.165359,0.0024 1.054687,-0.59375 -0.179222,-1.729022 -0.621483,-3.454384 -1.327156,-5.043742 -0.884402,-1.572682 -2.024448,-2.99246 -3.2705,-4.292195 0.947437,0.527643 1.866847,1.134636 2.501953,2.029297 0.398315,0.579749 1.249233,0.401939 1.367188,-0.300782 0.195313,-0.958924 0.48552,-1.924306 1.183593,-2.65039 0.245555,4.171768 -0.04767,8.363759 0.31074,12.528428 0.01003,0.630989 0.556988,1.591097 1.264694,1.184994 0.626846,-0.678952 0.457307,-1.73794 0.627755,-2.592895 0.765836,-7.998732 2.175017,-15.983568 4.624937,-23.581465 2.521886,-7.581628 6.415405,-14.994865 12.227074,-20.633369 5.339884,-5.2333225 12.574635,-8.593141 20.102398,-9.0219661 6.3583,-0.3719363 12.72231,1.8895888 17.651,5.8721321 5.28098,4.171322 9.09356,9.973056 11.45507,16.232422 1.38109,3.644285 2.40923,7.570572 3.14727,11.453556 0.64419,3.166886 0.92937,6.392705 0.91429,9.623091 0.0103,3.064219 0.0852,6.143859 -0.22952,9.192884 -0.0216,0.693329 0.89465,0.910984 1.25781,0.359375 1.41236,-1.753601 2.14906,-3.968939 2.41406,-6.177734 0.68455,0.930787 1.46404,1.785393 2.22656,2.652344 0.56872,-0.120028 1.1362,-0.246174 1.70508,-0.365235 -2.85653,1.973914 -4.8114,4.96842 -6.10928,8.141179 -0.46705,1.180772 -1.06667,2.351285 -1.21494,3.624446 0.0137,0.711198 0.94129,0.660781 1.22452,0.137296 1.03391,-1.288939 1.89708,-2.717427 3.07529,-3.892616 2.96907,-3.229102 6.37751,-6.012729 9.90957,-8.598258 3.73318,-2.861048 7.44947,-5.782382 10.63174,-9.264632 1.63069,-1.642632 3.20934,-3.587101 5.55341,-4.190384 1.90365,-0.554505 3.89376,-0.991569 5.86032,-0.392048 5.35184,1.18773 9.65121,5.260747 12.17204,10.000678 1.7025,3.255604 2.87039,6.910345 2.75085,10.61598 -0.1035,0.895321 -0.16645,2.184475 -1.16462,2.522741 -1.3414,0.0058 -2.321,-1.133282 -3.27202,-1.936507 -2.37641,-2.351286 -4.54799,-4.962306 -7.31141,-6.881156 -0.43367,-0.400811 -1.2939,-0.313697 -1.31641,0.378906 0.0181,0.981532 0.55517,1.876936 0.64021,2.860398 0.26672,1.850568 0.73854,3.860231 -0.0328,5.651321 -0.39128,0.994716 -1.72752,0.948108 -2.37651,0.248155 -2.72231,-2.254224 -4.74258,-5.239826 -6.39591,-8.333517 -0.27935,-0.49355 -0.80677,-1.255974 -1.42876,-0.795497 -0.59068,0.920413 -0.29946,2.106396 -0.26686,3.136402 0.0758,1.18752 0.48548,2.323332 0.46608,3.515941 -0.96508,2.222025 -1.52113,4.604224 -2.4933,6.828318 -3.18644,7.961191 -8.28624,15.079255 -14.51022,20.949471 -2.15177,2.025067 -4.41938,4.021515 -7.10976,5.29643 0.0886,-0.661299 -0.38667,-1.608364 -1.16992,-1.259766 -1.29574,0.734358 -1.31287,2.407709 -1.29593,3.719921 -8.7e-4,1.565824 0.0175,3.133074 0.11234,4.696097 -2.26871,-3.609271 -3.29773,-7.796997 -4.5047,-11.836703 -0.20019,-0.548615 -0.42661,-1.487132 -1.19257,-1.298065 -0.72347,0.611073 -0.45002,1.69813 -0.49619,2.534465 0.15161,5.184481 1.97796,10.232322 4.75596,14.576863 1.21202,1.75702 2.63663,3.38751 3.50376,5.36185 2.21365,4.74344 5.61841,9.24234 10.4767,11.47995 1.82858,0.88285 3.85897,1.12324 5.85773,1.2755 3.47988,0.41688 7.00398,1.54796 9.78453,3.8114 1.90454,1.72316 3.13451,4.34104 2.86946,6.93458 -1.83948,-2.53732 -5.15627,-3.34351 -8.13788,-3.33162 -4.0349,-0.12043 -7.8536,1.34708 -11.67908,2.41287 -3.36138,0.96094 -6.75387,1.88339 -10.19546,2.0468 -3.35787,0.10535 -6.76356,0.24294 -10.07742,-0.41906 -5.40595,-1.0175 -10.84051,-3.07809 -15.65836,-5.92915 -4.37854,-2.52995 -8.33916,-5.78616 -12.0334,-9.25503 -0.60178,-0.42294 -1.10274,-1.19396 -1.85902,-1.28653 -0.5678,-0.15973 -0.55117,0.56419 -0.42969,0.92578 1.06959,2.33852 2.50832,4.51713 4.21875,6.4375 -3.85161,-2.60044 -7.763864,-5.16 -11.154547,-8.36165 -2.810335,-2.54733 -5.442737,-5.28602 -7.883822,-8.18803 -0.435341,-0.41258 -0.974173,-1.21466 -1.644679,-0.89832 -0.649355,0.53885 0.05105,1.38227 0.311955,1.95972 4.627006,7.66469 10.616754,14.65286 18.125003,19.61914 -5.299985,-2.69201 -10.376341,-5.99404 -14.876209,-9.9335 -2.186455,-1.85113 -4.592644,-3.53543 -6.338638,-5.83212 -0.627543,-1.0642 -1.675656,-1.80328 -2.415559,-2.74149 -1.680058,-1.88656 -3.149345,-3.89005 -4.7778,-5.8132 -0.402173,-0.44977 -1.114728,0.0724 -0.902344,0.61719 0.446832,1.64294 1.447754,3.07051 2.250257,4.55558 0.799461,1.40742 1.686205,2.7621 2.774421,3.95782 1.356558,1.88286 2.731761,3.75713 4.338603,5.43777 4.271309,4.57003 8.817434,8.95511 14.10221,12.34808 7.051819,4.63878 14.954129,8.06968 23.274179,9.61104 3.30493,0.69583 6.66871,1.1534 10.0533,1.07213 6.22027,0.0142 12.45312,-0.98488 18.29625,-3.13905 4.1932,-1.45406 8.24647,-3.47144 12.6685,-4.1472 2.38842,-0.081 5.02846,0.70435 6.50595,2.69445 0.98131,1.18176 0.6009,3.02223 1.84961,4.03711 1.02856,0.92948 2.63866,0.65475 3.5865,-0.25163 2.08273,-1.77938 3.07299,-4.58775 2.97889,-7.28586 0.0236,-1.89643 0.11438,-3.88497 -0.79053,-5.62065 -1.1339,-2.85386 -3.15424,-5.34559 -5.78955,-6.93981 -3.76213,-2.3168 -8.13714,-3.45431 -12.50041,-3.91064 -2.95537,-0.42199 -5.4787,-2.36602 -7.09599,-4.81265 -1.87561,-2.7767 -3.03727,-6.05023 -3.01462,-9.44203 0.0339,-1.62444 0.35628,-3.405142 1.69292,-4.483586 2.70219,-2.506284 5.48687,-4.936828 7.90779,-7.726695 5.12048,-5.672625 9.23291,-12.249089 12.56211,-19.071368 0.85925,-1.536197 1.591,-3.208973 2.83594,-4.478515 0.76854,-0.323733 1.54756,0.335366 2.33212,0.382594 1.77843,0.426905 3.6896,-0.270583 5.03249,-1.442589 0.7638,-0.862708 1.20493,-1.990537 1.43812,-3.098209 1.68422,1.543014 3.32944,3.385508 5.67383,3.859376 2.27893,0.703059 4.7352,-0.774733 5.70212,-2.849016 1.52459,-3.172587 1.24738,-6.870949 0.5166,-10.216538 -1.51636,-6.435673 -5.24657,-12.444737 -10.66134,-16.304873 -4.12622,-2.951283 -9.5312,-4.373048 -14.50241,-3.004208 -2.26837,0.581632 -4.40343,1.714244 -6.02087,3.426924 -2.87595,2.878302 -5.69006,5.87212 -9.08683,8.154742 -1.71039,1.120436 -3.53672,2.238031 -5.58204,2.578125 -1.04242,4.95e-4 -1.93649,-0.726427 -2.63867,-1.429688 -0.82664,-1.334191 -0.80729,-2.988779 -1.1285,-4.486314 -1.01836,-5.79658 -2.61142,-11.495988 -4.72756,-16.987167 -2.29291,-5.77039 -5.48381,-11.246488 -9.86248,-15.688805 -4.75488,-5.030483 -10.99885,-8.8459803 -17.90513,-9.91220454 -1.751,-0.28566042 -3.52806,-0.40367315 -5.30211,-0.37277484 z M 90.509766,20.853516 c -3.120268,0.234068 -5.590306,2.599396 -7.194558,5.116627 -2.262298,3.653808 -3.436727,8.254155 -2.180701,12.464777 0.567061,1.921617 1.967656,3.79692 4.050688,4.1565 1.360511,0.370526 2.721253,-0.317919 3.922448,-0.891438 3.268638,-1.84366 5.102581,-5.382829 6.257591,-8.819123 0.825721,-2.718141 0.976541,-5.684707 0.265351,-8.443093 -0.434468,-1.790263 -1.931126,-3.293218 -3.794647,-3.510032 -0.439168,-0.06676 -0.882014,-0.101778 -1.326172,-0.07422 z m 24.892574,0.759765 c -2.32995,0.09348 -4.26749,1.783585 -5.24688,3.812189 -1.27866,2.291539 -1.24768,5.007827 -1.24056,7.556421 0.0193,2.114332 0.35485,4.26052 1.38528,6.134093 1.2945,2.649275 3.62795,5.15391 6.71496,5.446743 2.78359,0.300029 5.2381,-1.75386 6.46116,-4.096956 1.92347,-3.779087 1.64213,-8.357367 0.15847,-12.235302 -1.12013,-2.830752 -3.16461,-5.675886 -6.26172,-6.460938 -0.64385,-0.157623 -1.3102,-0.201404 -1.97071,-0.15625 z M 93.175781,44.351562 c -1.174208,0.174798 -1.465456,1.564753 -1.700344,2.537317 -0.589518,3.314677 -0.528546,6.76071 0.180813,10.052527 0.690264,3.011868 2.321151,6.115226 5.263853,7.435728 2.196674,1.078345 4.847237,0.351793 6.637087,-1.176392 2.24405,-1.749801 3.42502,-4.454253 4.47415,-7.018668 1.06656,-2.740328 1.21353,-5.728684 1.29255,-8.635935 0.0277,-0.876918 -0.0395,-2.209372 -1.15006,-2.358639 -1.75593,-0.06844 -3.40638,0.745738 -5.14154,0.919541 -2.71298,0.466981 -5.461877,-0.183422 -7.956981,-1.243817 -0.621864,-0.19156 -1.243303,-0.477937 -1.899528,-0.511662 z M 66.318359,65.855469 c -0.899168,0.409176 -0.680658,1.803709 -1.683593,2.142578 -0.601207,0.328892 -1.415875,0.51394 -1.673828,1.226562 0.520476,1.177764 2.446051,0.982004 2.642801,2.400141 0.06621,0.603194 0.7295,1.347507 1.310323,0.799078 0.600702,-0.664937 0.570786,-1.863747 1.595783,-2.130408 0.577222,-0.258343 1.643727,-0.661925 1.312421,-1.465295 -0.350739,-0.630723 -1.279278,-0.191169 -1.704631,-0.787511 -0.710076,-0.469163 -0.68634,-1.288333 -1.068807,-1.941005 -0.155208,-0.221134 -0.474317,-0.34692 -0.730469,-0.24414 z m -33.974609,8.1875 c -0.724093,0.560276 -0.714102,1.638737 -1.021484,2.445312 -0.413361,1.749967 -1.248398,3.60866 -3.013424,4.346007 -1.317177,0.719844 -2.938862,0.747728 -4.17017,1.616884 -0.560214,0.572207 0.257696,1.169428 0.805792,1.304263 1.830332,0.686712 4.139355,0.874602 5.253648,2.708065 0.983443,1.478182 1.04766,3.335486 1.833138,4.891969 0.289059,0.575942 1.076769,0.39803 1.253675,-0.173563 0.77885,-1.762795 0.839563,-3.90128 2.186792,-5.382764 1.430067,-1.226155 3.33325,-1.547705 5.075158,-2.086251 0.640042,-0.16987 0.982534,-1.078824 0.333984,-1.464844 -1.213256,-0.600915 -2.614969,-0.754969 -3.838477,-1.359765 -1.455969,-0.521774 -2.513274,-1.798981 -2.874836,-3.288234 -0.394393,-1.104754 -0.433076,-2.351961 -1.024968,-3.373486 -0.170343,-0.24187 -0.547139,-0.354245 -0.798828,-0.183593 z m 50.486328,2.953125 c -0.832244,0.980692 -0.736666,2.464647 -1.514913,3.504516 -0.767745,1.276458 -2.369302,1.368906 -3.581905,1.965458 -0.702384,0.235114 -0.776124,1.276627 -0.02623,1.506588 1.316613,0.369141 2.812979,0.719735 3.592027,1.968336 0.792007,1.034204 0.710044,2.447359 1.429458,3.506274 0.344287,0.362003 0.780257,0.130491 0.984375,-0.25 0.705313,-1.426495 0.748273,-3.359343 2.291015,-4.222657 1.036356,-0.693823 2.471009,-0.620588 3.369141,-1.517578 0.418039,-0.604117 -0.317969,-1.128098 -0.882292,-1.17587 -1.371522,-0.45275 -3.222076,-0.662138 -3.813801,-2.204321 -0.458712,-0.98602 -0.495421,-2.199642 -1.184766,-3.057309 -0.256641,-0.225653 -0.410257,-0.309656 -0.66211,-0.02344 z m -21.230469,0.65039 c -3.857014,0.223395 -7.593162,2.626376 -9.060311,6.255063 -1.073,2.480127 -0.887991,5.352829 0.173931,7.803856 0.236631,0.544399 -0.710023,0.746834 -0.974948,1.17155 -1.470404,1.267561 -2.185751,3.510473 -1.233967,5.291729 0.707011,1.373853 1.997119,2.299428 3.140217,3.286398 -0.223349,3.20226 -0.742572,6.43598 -2.177388,9.34079 -0.953956,1.90209 -1.866783,4.06813 -3.773784,5.20413 -1.400748,0.58973 -2.95946,0.86075 -4.207466,1.78978 -1.847063,1.26649 -2.964592,3.54432 -2.897432,5.77139 0.05807,0.94365 0.418704,1.83095 0.710367,2.72008 -1.280129,0.98778 -2.201064,2.45732 -2.287606,4.09663 -0.213604,1.65384 0.09118,3.48211 1.351571,4.67357 2.241765,2.18371 5.300169,3.23535 8.22899,4.14388 4.259865,1.20208 8.687792,1.90157 13.119069,1.87552 4.112904,-0.12257 8.265645,-0.64852 12.161031,-2.01851 1.838571,-0.57183 3.498118,-1.95095 3.984534,-3.86943 0.579458,-1.93856 -0.0072,-4.00074 -0.971651,-5.71221 1.261656,-2.02079 1.340422,-4.68823 0.330688,-6.82393 -1.096455,-1.92619 -3.030475,-3.17553 -4.97522,-4.12529 -1.090455,-0.79684 -1.489914,-2.18566 -2.07749,-3.34534 -1.58379,-3.83027 -1.499831,-8.11585 -1.012353,-12.14098 1.69417,-0.76218 3.589251,-1.71723 4.226631,-3.604304 0.619143,-1.729468 -0.03866,-3.768507 -1.408272,-4.950387 1.670187,-2.361692 2.45772,-5.355847 1.958618,-8.222343 -0.419328,-2.849161 -2.20811,-5.406581 -4.691663,-6.847777 -2.267803,-1.397545 -4.990884,-1.970923 -7.636096,-1.763865 z m 1.548829,3.291016 c 1.020612,0.04622 2.341479,0.384532 3.064453,0.759766 -2.425353,-0.318941 -5.22699,0.01936 -6.957965,1.927443 -2.136585,2.190249 -2.633634,5.840684 -1.333051,8.494432 -1.656913,-0.860395 -2.614703,-2.702576 -2.554944,-4.544032 -0.145915,-2.145909 1.105853,-4.150003 2.857094,-5.307473 1.427067,-0.998131 3.195419,-1.429439 4.924413,-1.330136 z m 30.953124,11.005859 c -0.790625,0.919586 -0.923778,2.238356 -1.468639,3.309061 -0.166173,0.704836 -0.774296,1.053427 -1.407612,1.281389 -0.992118,0.502636 -2.258941,0.657078 -2.990936,1.554082 -0.124722,0.959929 1.047794,1.107319 1.729254,1.304224 1.239292,0.428238 2.649132,1.114105 2.957784,2.519935 0.361385,0.87458 0.334688,1.98103 1.082493,2.6485 0.800883,0.32023 1.102126,-0.72523 1.306641,-1.29688 0.385701,-1.16372 0.52705,-2.66138 1.797273,-3.22464 0.910438,-0.628046 2.043919,-0.692303 3.03085,-1.115202 0.70423,-0.340367 0.43195,-1.31606 -0.237878,-1.507612 -1.234924,-0.518799 -2.853299,-0.534001 -3.627763,-1.810216 -0.764296,-1.087921 -0.704687,-2.569521 -1.493732,-3.623578 -0.258222,-0.24123 -0.413622,-0.336034 -0.677735,-0.03906 z m -69.24414,1.625 c -0.815224,0.07256 -0.553414,1.088055 -1.121094,1.457032 -0.419736,0.400166 -1.320459,0.657091 -1.046875,1.408203 0.44123,0.802232 1.461553,1.257879 1.570313,2.236328 0.311379,0.775912 1.487075,0.427794 1.458191,-0.364792 0.342343,-0.901563 1.232634,-1.457355 1.850402,-2.168411 -0.615869,-0.579937 -1.414536,-1.021066 -1.845703,-1.763672 -0.02056,-0.439519 -0.40238,-0.869022 -0.865234,-0.804688 z m 29.867187,1.236329 c 1.173919,0.537228 2.295552,1.205445 3.550166,1.560255 1.384239,0.462564 2.808875,0.81499 4.258428,0.996385 -1.818828,3.26e-4 -3.690639,-0.02955 -5.380859,-0.787109 -0.701953,-0.222993 -1.842453,-0.708267 -2.248047,0.205078 -0.143148,0.430434 -0.06338,0.930239 0.207031,1.294922 -0.711155,-0.44277 -1.874453,-0.96356 -1.555824,-2.001311 0.147243,-0.545884 0.63665,-1.131763 1.169105,-1.26822 z m 14.820313,2.226562 c -0.997283,0.172214 -2.119957,0.277631 -3.173828,0.296875 0.934724,-0.138594 1.819216,-0.48174 2.685547,-0.845703 0.16276,0.182943 0.32552,0.365885 0.488281,0.548828 z M 37.625,100.00195 c -0.934946,0.98282 -0.810276,2.61748 -1.833984,3.57422 -1.01034,1.05834 -2.869283,0.77101 -3.69336,2.03906 -0.285263,0.67271 0.543753,1.00967 1.09375,0.9375 1.460722,0.26653 3.096886,1.04046 3.451858,2.62785 0.345172,0.71501 0.158944,1.91677 1.054002,2.22176 0.919592,0.079 1.035764,-1.11451 1.224609,-1.74414 0.324869,-0.96791 0.684196,-2.1425 1.803457,-2.43248 0.888234,-0.44126 1.929826,-0.58789 2.75709,-1.12416 0.521239,-0.57124 -0.220809,-1.20322 -0.785098,-1.33065 -1.188518,-0.48564 -2.768917,-0.63389 -3.326668,-1.986 C 38.878923,101.9053 38.955684,100.71962 38.214844,100 37.981639,99.835425 37.841425,99.768902 37.625,100.00195 Z m 19.365234,2.91993 c 0.741873,0.3492 0.34086,1.32011 0.393418,1.9547 -0.23803,4.3407 -1.225633,8.68228 -3.211777,12.56678 -0.646724,-0.24547 -1.293303,-0.49131 -1.939453,-0.73828 2.287273,-3.41071 3.820155,-7.32502 4.551314,-11.36183 0.156571,-0.79776 0.140926,-1.62329 0.206498,-2.42137 z m -6.550781,15.05273 c 0.708322,0.31944 1.126701,1.088 1.863576,1.4061 2.476154,1.38292 5.289995,2.2607 8.147603,2.17086 2.017123,-0.034 4.093229,-0.002 6.039602,-0.59454 0.779314,-0.32249 1.495402,-0.80265 2.0625,-1.42969 0.661131,0.36965 -0.05693,0.7083 -0.408203,0.99414 -2.299006,1.38851 -5.108737,1.51557 -7.727111,1.45522 -2.696352,-0.15079 -5.499998,-0.48406 -7.904266,-1.7958 -0.831055,-0.53821 -1.730148,-1.15602 -2.138154,-2.0891 0.01902,-0.0179 0.0083,-0.13111 0.06445,-0.11719 z m -3.099609,1.78711 c 0.542704,0.25478 0.985361,0.67448 1.427734,1.07031 -1.38225,0.5212 -2.326965,2.44051 -1.292169,3.7035 1.391159,1.75117 3.590464,2.5702 5.62337,3.32884 2.192919,0.75588 4.467638,1.26455 6.768409,1.54969 -2.912746,-0.22407 -5.765145,-1.05386 -8.506689,-1.89816 -2.421312,-0.82442 -5.090291,-1.677 -6.702061,-3.79417 -0.682311,-0.81383 -0.252084,-1.91563 0.432768,-2.56675 0.605463,-0.6277 1.355015,-1.27906 2.248638,-1.39326 z m 24.171875,2.35742 c 1.280892,0.75881 2.817627,1.77964 2.90039,3.41992 -0.100022,1.52133 -1.767458,2.11129 -2.957031,2.62696 -0.9087,0.31443 -0.119412,0.0533 0.302734,-0.16407 1.072229,-0.64479 1.99704,-1.68204 2.373047,-2.88476 0.04682,-0.81096 -0.810768,-1.31053 -1.283808,-1.86808 -0.434937,-0.41517 -0.884823,-0.82031 -1.388067,-1.15145 z m -0.845703,6.32227 c -0.247635,0.0743 0.16401,-0.0525 0,0 z m -27.283204,0.72265 c 1.080409,0.80399 2.127023,1.69597 3.384345,2.23213 4.397976,2.07326 9.307478,2.81654 14.130455,2.9859 3.8097,0.0502 7.740175,-0.11478 11.323091,-1.53248 0.630465,-0.25629 1.209919,-0.6144 1.775391,-0.98828 0.398857,0.32276 0.760688,0.69808 0.0957,0.94726 -2.106681,1.10363 -4.502319,1.57464 -6.852047,1.81256 -3.846913,0.19192 -7.714443,0.24428 -11.556156,-0.0626 -4.001231,-0.59312 -8.022541,-1.54298 -11.628906,-3.42382 -0.506594,-0.37543 -1.32085,-0.6379 -1.470704,-1.30665 0.09901,-0.31651 0.48276,-0.61823 0.798828,-0.66406 z" /><path
       style="font-weight:bold;font-size:29.6333px;font-family:'PT Sans Caption';-inkscape-font-specification:'PT Sans Caption';stroke-width:0.264583"
       d="m 28.89167,159.71981 h 8.475124 v 9.30485 q -0.681565,0.5334 -1.511298,0.91864 -0.800099,0.3556 -1.718731,0.6223 -0.888999,0.23706 -1.837265,0.3556 -0.948266,0.11853 -1.866898,0.11853 -2.133598,0 -4.000496,-0.6223 -1.837264,-0.6223 -3.230029,-1.92616 -1.363132,-1.3335 -2.163231,-3.3782 -0.770466,-2.0447 -0.770466,-4.85986 0,-2.9337 0.948266,-4.9784 0.948265,-2.07433 2.459563,-3.34856 1.540932,-1.30387 3.40783,-1.8669 1.896531,-0.59266 3.763429,-0.59266 1.926165,0 3.378197,0.29633 1.481665,0.2667 2.311397,0.5334 l -0.918632,3.64489 q -0.800099,-0.2667 -1.807632,-0.4445 -1.007532,-0.17779 -2.51883,-0.17779 -1.392765,0 -2.548464,0.38523 -1.155699,0.3556 -2.015065,1.18533 -0.859365,0.82973 -1.333498,2.16323 -0.474133,1.3335 -0.474133,3.23003 0,1.83727 0.474133,3.14113 0.474133,1.30387 1.274232,2.16323 0.829732,0.82973 1.896531,1.21497 1.066799,0.38523 2.252131,0.38523 0.800099,0 1.600198,-0.1778 0.829733,-0.1778 1.392765,-0.56303 v -3.58563 l -4.919128,-0.47413 z m 22.402755,10.90505 v -8.56402 q 0,-2.01507 -0.622299,-2.87443 -0.592666,-0.889 -2.222498,-0.889 -1.185332,0 -2.192864,0.77047 -0.977899,0.74083 -1.303865,1.98543 v 9.57155 h -4.148662 v -20.74331 h 4.148662 v 7.08236 h 0.355599 q 0.8001,-1.03716 1.985432,-1.6891 1.214965,-0.65193 3.05223,-0.65193 1.274231,0 2.222497,0.32597 0.948266,0.29633 1.570565,1.0668 0.651933,0.74083 0.977899,2.01506 0.325966,1.2446 0.325966,3.1115 v 9.48265 z m 7.526874,-7.76392 q 0,-3.85233 2.044698,-6.0452 2.044697,-2.19286 5.83776,-2.19286 1.985431,0 3.467096,0.6223 1.481665,0.6223 2.459564,1.74836 0.977899,1.09644 1.452032,2.60773 0.503766,1.48167 0.503766,3.25967 0,1.89653 -0.5334,3.43746 -0.533399,1.5113 -1.540931,2.5781 -1.007532,1.0668 -2.489197,1.62983 -1.452032,0.56303 -3.31893,0.56303 -2.015065,0 -3.49673,-0.6223 -1.481665,-0.6223 -2.459564,-1.71873 -0.977899,-1.12606 -1.452031,-2.60773 -0.474133,-1.5113 -0.474133,-3.25966 z m 4.267195,0 q 0,0.9779 0.207433,1.83726 0.207433,0.85937 0.6223,1.5113 0.444499,0.6223 1.126065,1.00753 0.681566,0.38524 1.659465,0.38524 3.615263,0 3.615263,-4.74133 0,-1.03717 -0.207434,-1.89653 -0.177799,-0.889 -0.622299,-1.5113 -0.414866,-0.65193 -1.126065,-1.00753 -0.681566,-0.3556 -1.659465,-0.3556 -1.689098,0 -2.666997,1.12606 -0.948266,1.12607 -0.948266,3.6449 z m 14.84626,3.73379 q 0.414866,0.20744 0.948266,0.41487 0.563032,0.20743 1.185332,0.38523 0.651932,0.1778 1.303865,0.29634 0.681566,0.11853 1.363132,0.11853 1.037165,0 1.600198,-0.32597 0.592666,-0.32596 0.592666,-1.21496 0,-0.7112 -0.770466,-1.03717 -0.770466,-0.3556 -1.896531,-0.68156 -0.829733,-0.23707 -1.748365,-0.56304 -0.888999,-0.32596 -1.659465,-0.85936 -0.740832,-0.56304 -1.244598,-1.45203 -0.474133,-0.889 -0.474133,-2.25214 0,-2.34103 1.452032,-3.55599 1.452031,-1.2446 4.178295,-1.2446 1.777998,0 3.31893,0.32597 1.570565,0.29633 2.51883,0.7112 l -0.859366,3.14113 q -0.770465,-0.29634 -1.985431,-0.59267 -1.185332,-0.32597 -2.42993,-0.32597 -1.037166,0 -1.540932,0.32597 -0.503766,0.29633 -0.503766,1.0668 0,0.68156 0.770466,1.03716 0.800099,0.32597 1.926164,0.65194 0.829733,0.23706 1.718732,0.56303 0.918632,0.29633 1.659465,0.82973 0.740832,0.5334 1.214965,1.39277 0.503766,0.82973 0.503766,2.10396 0,2.4892 -1.629832,3.85233 -1.600198,1.36313 -4.830228,1.36313 -1.748364,0 -3.259663,-0.32596 -1.511298,-0.29634 -2.459564,-0.889 z m 12.445983,-11.52735 h 2.370665 v -2.1336 l 4.148662,-1.09643 v 3.23003 h 4.178296 v 3.4671 h -4.178296 v 5.39326 q 0,1.86689 0.355599,2.69663 0.385233,0.8001 1.481665,0.8001 0.681566,0 1.155699,-0.0889 0.474133,-0.11854 1.007533,-0.3556 l 0.85936,3.11149 q -0.94826,0.41487 -2.192859,0.7112 -1.214966,0.29634 -2.370664,0.29634 -2.311398,0 -3.378197,-1.12607 -1.066798,-1.1557 -1.066798,-3.67453 v -7.76392 h -2.370665 z m 36.626733,14.66848 q -0.9779,0.68157 -2.5781,0.9779 -1.6002,0.32597 -3.2893,0.32597 -1.98543,0 -3.82269,-0.59267 -1.80763,-0.59266 -3.23003,-1.89653 -1.39277,-1.30386 -2.2225,-3.34856 -0.82973,-2.0447 -0.82973,-4.94876 0,-3.0226 0.94826,-5.0673 0.94827,-2.07433 2.42994,-3.31893 1.48166,-1.27423 3.28929,-1.83726 1.80763,-0.56303 3.556,-0.56303 1.92616,0 3.23003,0.23706 1.3335,0.23707 2.19286,0.56304 l -0.85936,3.67452 q -0.74084,-0.32596 -1.74837,-0.47413 -0.9779,-0.14816 -2.4892,-0.14816 -1.33349,0 -2.42993,0.44449 -1.0668,0.41487 -1.83726,1.27424 -0.77047,0.85936 -1.21497,2.16323 -0.41486,1.30386 -0.41486,3.05223 0,1.54093 0.38523,2.81516 0.38523,1.27423 1.1557,2.19287 0.77046,0.91863 1.9558,1.42239 1.18533,0.50377 2.75589,0.50377 1.45204,0 2.42993,-0.2667 1.00754,-0.2667 1.778,-0.68157 z m 13.45352,0.889 v -8.56402 q 0,-2.01507 -0.6223,-2.87443 -0.59266,-0.889 -2.22249,-0.889 -1.18534,0 -2.19287,0.77047 -0.9779,0.74083 -1.30386,1.98543 v 9.57155 h -4.14867 v -20.74331 h 4.14867 v 7.08236 h 0.3556 q 0.80009,-1.03716 1.98543,-1.6891 1.21496,-0.65193 3.05223,-0.65193 1.27423,0 2.22249,0.32597 0.94827,0.29633 1.57057,1.0668 0.65193,0.74083 0.9779,2.01506 0.32596,1.2446 0.32596,3.1115 v 9.48265 z m 21.72123,-1.4224 q -1.00753,0.77047 -2.75589,1.3335 -1.71874,0.5334 -3.70417,0.5334 -4.00049,0 -5.86739,-2.19286 -1.8669,-2.19287 -1.8669,-6.01556 0,-4.05976 2.10397,-6.1341 2.10396,-2.10396 5.92666,-2.10396 1.24459,0 2.45956,0.32597 1.21497,0.29633 2.16323,1.03716 0.94827,0.7112 1.5113,1.9558 0.59267,1.21497 0.59267,3.0226 0,0.6223 -0.0889,1.36313 -0.0593,0.74083 -0.23707,1.54093 h -10.37166 q 0.14817,2.01506 1.1557,2.99296 1.03717,0.94827 3.34857,0.94827 1.39276,0 2.48919,-0.38523 1.12607,-0.41487 1.71873,-0.82974 z m -6.22299,-11.31992 q -1.83727,0 -2.72626,1.00754 -0.889,0.97789 -1.03717,2.51883 h 6.69713 q 0.11853,-1.62984 -0.59267,-2.5781 -0.7112,-0.94827 -2.34103,-0.94827 z m 10.49019,8.71219 q 0.41486,0.20744 0.94826,0.41487 0.56304,0.20743 1.18534,0.38523 0.65193,0.1778 1.30386,0.29634 0.68157,0.11853 1.36313,0.11853 1.03717,0 1.6002,-0.32597 0.59267,-0.32596 0.59267,-1.21496 0,-0.7112 -0.77047,-1.03717 -0.77047,-0.3556 -1.89653,-0.68156 -0.82973,-0.23707 -1.74837,-0.56304 -0.88899,-0.32596 -1.65946,-0.85936 -0.74083,-0.56304 -1.2446,-1.45203 -0.47413,-0.889 -0.47413,-2.25214 0,-2.34103 1.45203,-3.55599 1.45203,-1.2446 4.1783,-1.2446 1.77799,0 3.31893,0.32597 1.57056,0.29633 2.51883,0.7112 l -0.85937,3.14113 q -0.77047,-0.29634 -1.98543,-0.59267 -1.18533,-0.32597 -2.42993,-0.32597 -1.03717,0 -1.54093,0.32597 -0.50377,0.29633 -0.50377,1.0668 0,0.68156 0.77047,1.03716 0.8001,0.32597 1.92616,0.65194 0.82973,0.23706 1.71873,0.56303 0.91863,0.29633 1.65947,0.82973 0.74083,0.5334 1.21496,1.39277 0.50377,0.82973 0.50377,2.10396 0,2.4892 -1.62983,3.85233 -1.6002,1.36313 -4.83023,1.36313 -1.74837,0 -3.25966,-0.32596 -1.5113,-0.29634 -2.45957,-0.889 z m 14.31286,0 q 0.41487,0.20744 0.94827,0.41487 0.56303,0.20743 1.18533,0.38523 0.65193,0.1778 1.30387,0.29634 0.68156,0.11853 1.36313,0.11853 1.03716,0 1.6002,-0.32597 0.59266,-0.32596 0.59266,-1.21496 0,-0.7112 -0.77046,-1.03717 -0.77047,-0.3556 -1.89653,-0.68156 -0.82974,-0.23707 -1.74837,-0.56304 -0.889,-0.32596 -1.65946,-0.85936 -0.74084,-0.56304 -1.2446,-1.45203 -0.47414,-0.889 -0.47414,-2.25214 0,-2.34103 1.45204,-3.55599 1.45203,-1.2446 4.17829,-1.2446 1.778,0 3.31893,0.32597 1.57057,0.29633 2.51883,0.7112 l -0.85936,3.14113 q -0.77047,-0.29634 -1.98543,-0.59267 -1.18534,-0.32597 -2.42994,-0.32597 -1.03716,0 -1.54093,0.32597 -0.50376,0.29633 -0.50376,1.0668 0,0.68156 0.77046,1.03716 0.8001,0.32597 1.92617,0.65194 0.82973,0.23706 1.71873,0.56303 0.91863,0.29633 1.65946,0.82973 0.74084,0.5334 1.21497,1.39277 0.50376,0.82973 0.50376,2.10396 0,2.4892 -1.62983,3.85233 -1.60019,1.36313 -4.83022,1.36313 -1.74837,0 -3.25967,-0.32596 -1.5113,-0.29634 -2.45956,-0.889 z"
       id="text1"
       aria-label="Ghost Chess" /><path
       style="font-weight:bold;font-size:11.2889px;font-family:'PT Sans Caption';-inkscape-font-specification:'PT Sans Caption';stroke-width:0.264583"
       d="m 106.33081,179.18642 h 1.58045 v 2.48356 h 0.13547 q 0.27093,-0.3048 0.68862,-0.47413 0.42898,-0.18062 0.93698,-0.18062 1.15147,0 1.74978,0.75635 0.6096,0.74507 0.6096,2.19005 0,0.77893 -0.22578,1.38853 -0.21449,0.6096 -0.62089,1.02729 -0.4064,0.41769 -0.99342,0.64347 -0.58703,0.21449 -1.3208,0.21449 -0.84667,0 -1.51272,-0.12418 -0.66604,-0.11289 -1.02729,-0.25964 z m 1.58045,6.55885 q 0.22578,0.11289 0.47413,0.14676 0.25965,0.0226 0.55316,0.0226 1.46756,0 1.46756,-1.91912 0,-0.8128 -0.3048,-1.23049 -0.3048,-0.42897 -0.90312,-0.42897 -0.508,0 -0.82409,0.23706 -0.3048,0.23707 -0.46284,0.69992 z m 7.4168,-1.29822 0.24836,0.94827 h 0.11289 l 0.21449,-0.94827 1.00471,-3.28507 h 1.61431 l -1.96427,5.36223 q -0.24835,0.66604 -0.47413,1.19662 -0.21449,0.53058 -0.47414,0.90311 -0.25964,0.37254 -0.58702,0.56445 -0.31609,0.2032 -0.75635,0.2032 -0.29352,0 -0.56445,-0.0565 -0.25964,-0.0452 -0.45156,-0.14675 l 0.32738,-1.2192 q 0.16934,0.0564 0.34996,0.0564 0.15804,0 0.3048,-0.0339 0.14675,-0.0339 0.27093,-0.13547 0.12418,-0.0903 0.22578,-0.27093 0.11289,-0.16934 0.19191,-0.46285 l -2.70933,-5.96054 h 1.90782 z m 7.13458,-4.35751 h -0.90311 v -0.90312 h 3.47698 v 0.90312 h -0.90312 v 6.096 h 0.90312 v 0.90311 h -3.47698 v -0.90311 h 0.90311 z m 5.45254,4.92196 q 0,0.85795 0.55316,0.85795 0.15804,0 0.29351,-0.0226 0.14675,-0.0339 0.33867,-0.1016 l 0.19191,1.23049 q -0.22578,0.1016 -0.64347,0.19192 -0.4064,0.1016 -0.84667,0.1016 -0.7112,0 -1.09502,-0.31609 -0.37253,-0.31609 -0.37253,-1.03858 v -6.72819 h 1.58044 z m 4.35751,-0.56445 0.24836,0.94827 h 0.11289 l 0.21449,-0.94827 1.00471,-3.28507 h 1.61431 l -1.96427,5.36223 q -0.24835,0.66604 -0.47413,1.19662 -0.21449,0.53058 -0.47413,0.90311 -0.25965,0.37254 -0.58703,0.56445 -0.31608,0.2032 -0.75635,0.2032 -0.29351,0 -0.56445,-0.0565 -0.25964,-0.0452 -0.45155,-0.14675 l 0.32738,-1.2192 q 0.16933,0.0564 0.34995,0.0564 0.15805,0 0.3048,-0.0339 0.14676,-0.0339 0.27094,-0.13547 0.12417,-0.0903 0.22577,-0.27093 0.11289,-0.16934 0.19191,-0.46285 l -2.70933,-5.96054 h 1.90782 z m 3.88339,-2.87867 q 0.508,-0.22578 1.24178,-0.37253 0.74507,-0.14676 1.53529,-0.14676 0.62089,0 1.03858,0.14676 0.42898,0.14675 0.67733,0.42898 0.24836,0.27093 0.34996,0.66604 0.11289,0.38382 0.11289,0.85796 0,0.57573 -0.0452,1.14018 -0.0452,0.56444 -0.0452,1.19662 0,0.42898 0.0564,0.83538 0.0565,0.4064 0.18062,0.77893 h -1.28693 l -0.25965,-0.88053 h -0.13546 q -0.29351,0.39511 -0.74507,0.67733 -0.45156,0.28222 -1.16276,0.28222 -0.42897,0 -0.79022,-0.12417 -0.34996,-0.12418 -0.6096,-0.34996 -0.24836,-0.23707 -0.39511,-0.55316 -0.13547,-0.31608 -0.13547,-0.68862 0,-1.00471 0.66605,-1.51271 0.67733,-0.51929 2.04329,-0.51929 0.31609,0 0.63218,0.0564 0.31609,0.0452 0.44026,0.0677 0.0339,-0.23707 0.0339,-0.4064 0,-0.42898 -0.21449,-0.63218 -0.21449,-0.2032 -0.80151,-0.2032 -0.54187,0 -1.06116,0.13547 -0.508,0.12417 -0.90311,0.31608 z m 2.06587,4.34623 q 0.53058,0 0.84667,-0.24836 0.31609,-0.24835 0.46284,-0.51929 v -0.67733 q -0.0564,-0.0226 -0.18062,-0.0452 -0.11289,-0.0226 -0.25964,-0.0452 -0.13547,-0.0226 -0.28223,-0.0339 -0.13546,-0.0113 -0.24835,-0.0113 -0.6096,0 -0.90311,0.22578 -0.29352,0.21449 -0.29352,0.54187 0,0.4064 0.22578,0.6096 0.23707,0.2032 0.63218,0.2032 z m 11.26632,-0.99343 q 0,-0.34995 -0.29351,-0.55315 -0.29351,-0.2032 -0.73378,-0.37254 -0.42898,-0.16933 -0.93698,-0.33866 -0.508,-0.16934 -0.94827,-0.45156 -0.42898,-0.28222 -0.72249,-0.7112 -0.29351,-0.42898 -0.29351,-1.1176 0,-0.58702 0.2032,-1.02729 0.21449,-0.45156 0.58702,-0.73378 0.38383,-0.29351 0.91441,-0.44027 0.54186,-0.14675 1.18533,-0.14675 0.74507,0 1.41111,0.13547 0.67734,0.12417 1.10631,0.36124 l -0.53057,1.39982 q -0.13547,-0.079 -0.34996,-0.15804 -0.2032,-0.0903 -0.47413,-0.14676 -0.27094,-0.0677 -0.57574,-0.1016 -0.3048,-0.0451 -0.62089,-0.0451 -0.56444,0 -0.88053,0.2032 -0.3048,0.19191 -0.3048,0.54187 0,0.34995 0.29351,0.56444 0.29351,0.2032 0.72249,0.38382 0.44027,0.16934 0.94827,0.34996 0.508,0.16933 0.93698,0.45155 0.44026,0.27094 0.73377,0.68863 0.29352,0.41769 0.29352,1.07244 0,0.65476 -0.22578,1.12889 -0.22578,0.47414 -0.64347,0.79023 -0.4064,0.3048 -0.98213,0.45155 -0.57574,0.14676 -1.26436,0.14676 -0.46285,0 -0.88053,-0.0565 -0.4064,-0.0451 -0.75636,-0.11289 -0.34996,-0.079 -0.62089,-0.15804 -0.25965,-0.0903 -0.41769,-0.16933 l 0.55316,-1.41112 q 0.12417,0.0677 0.33866,0.14676 0.22578,0.079 0.49672,0.15804 0.27093,0.0677 0.57573,0.11289 0.31609,0.0452 0.63218,0.0452 0.74506,0 1.12889,-0.21449 0.39511,-0.21449 0.39511,-0.66605 z m 2.1449,-3.7592 h 0.90311 v -0.8128 l 1.58045,-0.41769 v 1.23049 h 1.59173 v 1.3208 h -1.59173 v 2.05458 q 0,0.7112 0.13546,1.02729 0.14676,0.3048 0.56445,0.3048 0.25964,0 0.44027,-0.0339 0.18062,-0.0452 0.38382,-0.13547 l 0.32738,1.18533 q -0.36125,0.15805 -0.83538,0.27094 -0.46285,0.11289 -0.90311,0.11289 -0.88054,0 -1.28694,-0.42898 -0.4064,-0.44027 -0.4064,-1.39983 v -2.95769 h -0.90311 z m 8.78276,1.44498 q -0.33867,-0.11289 -0.67734,-0.11289 -0.49671,0 -0.82409,0.23707 -0.31609,0.23706 -0.41769,0.59831 v 3.7592 h -1.58044 v -5.92667 h 1.24178 l 0.16933,0.82409 h 0.14675 q 0.22578,-0.46284 0.59832,-0.7112 0.38382,-0.24836 0.86924,-0.24836 0.3048,0 0.69991,0.12418 z m 2.66418,-1.44498 v 3.28507 q 0,0.73378 0.2032,1.07245 0.2032,0.33866 0.77893,0.33866 0.49671,0 0.83538,-0.25964 0.33867,-0.25965 0.49671,-0.65476 v -3.78178 h 1.58045 v 4.12045 q 0,0.47413 0.0451,0.94827 0.0565,0.47413 0.14676,0.85795 h -1.16276 l -0.3048,-0.92569 h -0.12418 q -0.29351,0.47414 -0.83538,0.79023 -0.54186,0.3048 -1.24177,0.3048 -0.48543,0 -0.85796,-0.12418 -0.37253,-0.12418 -0.63218,-0.4064 -0.24836,-0.29351 -0.38382,-0.76765 -0.12418,-0.47413 -0.12418,-1.17404 v -3.62374 z m 7.78934,3.46569 h -0.54187 v 2.46098 h -1.58045 v -7.90223 h 1.58045 v 4.53814 l 0.49671,-0.21449 1.47885,-2.34809 h 1.73849 l -1.51271,2.15618 h 0.0113 l -0.72249,0.51929 0.75635,0.49671 h -0.0113 l 1.73849,2.75449 h -1.8288 z m 3.7479,-0.49671 q 0,-1.46756 0.77894,-2.30293 0.77893,-0.83538 2.22391,-0.83538 0.75636,0 1.3208,0.23706 0.56445,0.23707 0.93698,0.66605 0.37253,0.41769 0.55316,0.99342 0.19191,0.56445 0.19191,1.24178 0,0.72249 -0.2032,1.30951 -0.2032,0.57574 -0.58703,0.98214 -0.38382,0.4064 -0.94826,0.62089 -0.55316,0.21449 -1.26436,0.21449 -0.76764,0 -1.33209,-0.23707 -0.56444,-0.23707 -0.93698,-0.65476 -0.37253,-0.42897 -0.55315,-0.99342 -0.18063,-0.57573 -0.18063,-1.24178 z m 1.6256,0 q 0,0.37254 0.079,0.69991 0.079,0.32738 0.23706,0.57574 0.16934,0.23706 0.42898,0.38382 0.25965,0.14676 0.63218,0.14676 1.37725,0 1.37725,-1.80623 0,-0.39511 -0.079,-0.72249 -0.0677,-0.33866 -0.23706,-0.57573 -0.15805,-0.24836 -0.42898,-0.38382 -0.25965,-0.13547 -0.63218,-0.13547 -0.64347,0 -1.016,0.42898 -0.36125,0.42898 -0.36125,1.38853 z m 7.59743,0.1016 0.23707,0.9144 h 0.18062 l 0.16933,-0.93698 1.10632,-3.048 h 1.70462 l -2.70934,5.98312 h -0.90311 l -2.82222,-5.98312 h 1.84009 z"
       id="text2"
       aria-label="by Ilya Strukov" /></g></svg>
